<mxfile host="app.diagrams.net" modified="2024-03-03T06:23:45.087Z" agent="Mozilla/5.0 (Windows NT 10.0; Win64; x64) AppleWebKit/537.36 (KHTML, like Gecko) Chrome/122.0.0.0 Safari/537.36" etag="us3pX33Uwltq8NOka5sL" version="24.0.1" type="github">
  <diagram name="Page-1" id="kdKS-BgV-TgktTsyjBM1">
    <mxGraphModel dx="2149" dy="1209" grid="0" gridSize="10" guides="1" tooltips="1" connect="1" arrows="1" fold="1" page="1" pageScale="1" pageWidth="1600" pageHeight="900" background="#33FFFF" math="0" shadow="0">
      <root>
        <mxCell id="0" />
        <mxCell id="1" parent="0" />
        <mxCell id="FQucu6Hey1UE7LdJn9Ut-9" value="&lt;font color=&quot;#ccffff&quot; data-font-src=&quot;https://fonts.googleapis.com/css?family=Lato&quot; face=&quot;Lato&quot; style=&quot;font-size: 150px;&quot;&gt;CONTOH&lt;/font&gt;&lt;div&gt;&lt;font color=&quot;#ccffff&quot; data-font-src=&quot;https://fonts.googleapis.com/css?family=Lato&quot; face=&quot;Lato&quot; style=&quot;font-size: 150px;&quot;&gt;CONTOH&lt;br&gt;&lt;/font&gt;&lt;/div&gt;&lt;div&gt;&lt;font color=&quot;#ccffff&quot; data-font-src=&quot;https://fonts.googleapis.com/css?family=Lato&quot; face=&quot;Lato&quot; style=&quot;font-size: 150px;&quot;&gt;CONTOH&lt;br&gt;&lt;/font&gt;&lt;/div&gt;&lt;div&gt;&lt;font color=&quot;#ccffff&quot; data-font-src=&quot;https://fonts.googleapis.com/css?family=Lato&quot; face=&quot;Lato&quot; style=&quot;font-size: 150px;&quot;&gt;CONTOH&lt;/font&gt;&lt;/div&gt;" style="text;html=1;align=center;verticalAlign=middle;whiteSpace=wrap;rounded=0;glass=0;strokeColor=none;" vertex="1" parent="1">
          <mxGeometry x="1036" y="407" width="60" height="30" as="geometry" />
        </mxCell>
        <mxCell id="FQucu6Hey1UE7LdJn9Ut-2" value="&lt;h1&gt;&lt;br&gt;&lt;/h1&gt;" style="text;html=1;spacing=5;spacingTop=-20;whiteSpace=wrap;overflow=hidden;rounded=0;" vertex="1" parent="1">
          <mxGeometry x="460" y="270" width="190" height="120" as="geometry" />
        </mxCell>
        <mxCell id="FQucu6Hey1UE7LdJn9Ut-4" value="" style="whiteSpace=wrap;html=1;aspect=fixed;rounded=1;strokeColor=#99004D;fillColor=#660033;" vertex="1" parent="1">
          <mxGeometry x="940" y="180" width="600" height="600" as="geometry" />
        </mxCell>
        <mxCell id="FQucu6Hey1UE7LdJn9Ut-3" value="" style="whiteSpace=wrap;html=1;aspect=fixed;rounded=1;strokeColor=#660033;strokeWidth=8;" vertex="1" parent="1">
          <mxGeometry x="880" y="130" width="600" height="600" as="geometry" />
        </mxCell>
        <mxCell id="FQucu6Hey1UE7LdJn9Ut-6" value="&lt;font color=&quot;#660033&quot; data-font-src=&quot;https://fonts.googleapis.com/css?family=Lato&quot; face=&quot;Lato&quot; style=&quot;font-size: 150px;&quot;&gt;&lt;b&gt;Example&lt;/b&gt;&lt;/font&gt;&lt;div&gt;&lt;font color=&quot;#ababab&quot; data-font-src=&quot;https://fonts.googleapis.com/css?family=Lato&quot; face=&quot;Lato&quot; style=&quot;font-size: 150px;&quot;&gt;&lt;b style=&quot;&quot;&gt;CONTOH&lt;/b&gt;&lt;/font&gt;&lt;/div&gt;" style="text;html=1;align=left;verticalAlign=middle;whiteSpace=wrap;rounded=0;" vertex="1" parent="1">
          <mxGeometry x="160" y="390" width="60" height="30" as="geometry" />
        </mxCell>
        <mxCell id="FQucu6Hey1UE7LdJn9Ut-7" style="edgeStyle=orthogonalEdgeStyle;rounded=0;orthogonalLoop=1;jettySize=auto;html=1;entryX=0.75;entryY=1;entryDx=0;entryDy=0;" edge="1" parent="1" source="FQucu6Hey1UE7LdJn9Ut-6" target="FQucu6Hey1UE7LdJn9Ut-6">
          <mxGeometry relative="1" as="geometry" />
        </mxCell>
      </root>
    </mxGraphModel>
  </diagram>
</mxfile>
